<svg xmlns="http://www.w3.org/2000/svg" xmlns:xlink="http://www.w3.org/1999/xlink" width="20" height="20" viewBox="0 0 20 20">
  <defs>
    <clipPath id="clip-path">
      <rect id="사각형_352335" data-name="사각형 352335" width="20" height="20" transform="translate(279 55)" fill="#fff" stroke="#707070" stroke-width="1"/>
    </clipPath>
  </defs>
  <g id="마스크_그룹_212" data-name="마스크 그룹 212" transform="translate(-279 -55)" clip-path="url(#clip-path)">
    <g id="loupe" transform="translate(279 55)">
      <g id="그룹_470338" data-name="그룹 470338">
        <g id="그룹_470337" data-name="그룹 470337">
          <path id="패스_860331" data-name="패스 860331" d="M8.808,0a8.808,8.808,0,1,0,8.808,8.808A8.818,8.818,0,0,0,8.808,0Zm0,15.989a7.182,7.182,0,1,1,7.182-7.182A7.19,7.19,0,0,1,8.808,15.989Z"/>
        </g>
      </g>
      <g id="그룹_470340" data-name="그룹 470340" transform="translate(13.713 13.713)">
        <g id="그룹_470339" data-name="그룹 470339">
          <path id="패스_860332" data-name="패스 860332" d="M21.819,20.669l-4.661-4.661a.813.813,0,1,0-1.15,1.15l4.661,4.661a.813.813,0,0,0,1.15-1.15Z" transform="translate(-15.77 -15.77)"/>
        </g>
      </g>
    </g>
  </g>
</svg>
