<svg xmlns="http://www.w3.org/2000/svg" xmlns:xlink="http://www.w3.org/1999/xlink" width="230.438" height="168.09" viewBox="0 0 230.438 168.09"><defs><clipPath id="a"><rect width="117.051" height="117.145" fill="none"/></clipPath><clipPath id="b"><rect width="104.302" height="104.386" fill="none"/></clipPath><clipPath id="c"><rect width="79.818" height="79.818" fill="none"/></clipPath><clipPath id="d"><rect width="85.361" height="61.71" fill="none"/></clipPath><clipPath id="e"><rect width="44.272" height="44.272" fill="none"/></clipPath></defs><g transform="translate(-837.949 -260.871)"><g transform="translate(837.949 260.871)"><g transform="translate(0 0)" clip-path="url(#a)"><path d="M172.978,24.361l.377,2.305-1.882-1.039a1.39,1.39,0,0,0-1.342,0l-1.882,1.039.377-2.305a1.388,1.388,0,0,0-.377-1.194l-1.657-1.7,2.228-.34a1.39,1.39,0,0,0,1.047-.782l.936-1.99.935,1.99a1.388,1.388,0,0,0,1.047.782l2.228.34-1.657,1.7a1.388,1.388,0,0,0-.377,1.194" transform="translate(-150.451 -8.166)" fill="#8174c6"/><path d="M101.913,8.629a3.568,3.568,0,1,1,3.568,3.629,3.6,3.6,0,0,1-3.568-3.629" transform="translate(-48.578 -2.224)" fill="#e17db0"/><path d="M135.046,80.7l.936-1.99.935,1.99a1.388,1.388,0,0,0,1.047.782l2.227.34-1.657,1.7a1.389,1.389,0,0,0-.377,1.194l.377,2.305-1.883-1.039a1.384,1.384,0,0,0-1.341,0l-1.883,1.039.377-2.305a1.388,1.388,0,0,0-.377-1.194l-1.657-1.7,2.227-.34a1.389,1.389,0,0,0,1.047-.782" transform="translate(-96.298 -35.012)" fill="#eccb6d"/><path d="M190.631,121.493a1.394,1.394,0,1,1-.012,0Z" transform="translate(-180.02 -54.042)" fill="#19191c"/><path d="M139.075,20.033a1.388,1.388,0,0,1-2.28,1.583l-.007-.01a1.388,1.388,0,1,1,2.287-1.573" transform="translate(-98.077 -8.644)" fill="#19191c"/><path d="M149.807,98.727a1.388,1.388,0,0,1,1.89-.527l24.009,13.531a1.388,1.388,0,1,1-1.363,2.418l-24.009-13.531a1.388,1.388,0,0,1-.527-1.89" transform="translate(-142.433 -43.601)" fill="#19191c"/><path d="M149.345,46.893l6.307,6.355a1.388,1.388,0,1,1-1.97,1.955l-6.307-6.355a1.388,1.388,0,1,1,1.97-1.955" transform="translate(-120.601 -20.676)" fill="#19191c"/><path d="M188.43,68.892a1.381,1.381,0,0,1-.842-.286L166.52,52.489a1.388,1.388,0,1,1,1.687-2.2L189.275,66.4a1.388,1.388,0,0,1-.844,2.49" transform="translate(-164.916 -22.24)" fill="#19191c"/><path d="M116.733,55.909a1.388,1.388,0,0,1-1.94-.3L99.355,34.47a1.388,1.388,0,0,1,2.242-1.638L117.035,53.97a1.388,1.388,0,0,1-.3,1.939" transform="translate(-55.263 -14.351)" fill="#19191c"/><path d="M207.923,91.249a1.388,1.388,0,0,1-1.419,2.386l-.01-.006a1.388,1.388,0,1,1,1.429-2.38" transform="translate(-205.819 -40.502)" fill="#19191c"/><path d="M172.565,26.67a1.387,1.387,0,0,1-1.471.081L167.382,24.7l-3.713,2.049a1.388,1.388,0,0,1-2.041-1.439l.725-4.433L159.3,17.751a1.388,1.388,0,0,1,.783-2.342l4.168-.637,1.877-3.993a1.388,1.388,0,0,1,2.512,0l1.877,3.993,4.168.637a1.388,1.388,0,0,1,.783,2.342l-3.056,3.128.725,4.433a1.389,1.389,0,0,1-.57,1.359m-3.2-9.266a1.388,1.388,0,0,1-1.047-.782l-.935-1.99-.936,1.99a1.389,1.389,0,0,1-1.047.782l-2.227.34,1.657,1.7a1.386,1.386,0,0,1,.377,1.193l-.377,2.306,1.883-1.039a1.385,1.385,0,0,1,1.341,0l1.882,1.039-.377-2.306a1.386,1.386,0,0,1,.377-1.193l1.657-1.7Z" transform="translate(-147.03 -4.44)" fill="#19191c"/><path d="M126.806,85.665l.725-4.433L124.474,78.1a1.388,1.388,0,0,1,.783-2.342l4.168-.636,1.877-3.993a1.388,1.388,0,0,1,2.512,0l1.877,3.993,4.169.636a1.388,1.388,0,0,1,.783,2.342l-3.057,3.128.725,4.433a1.388,1.388,0,0,1-2.04,1.439l-3.713-2.049L128.847,87.1a1.388,1.388,0,0,1-2.041-1.439m3.2-5.871a1.388,1.388,0,0,1,.377,1.194l-.376,2.306,1.882-1.039a1.385,1.385,0,0,1,1.341,0l1.882,1.039-.377-2.306a1.388,1.388,0,0,1,.377-1.194l1.657-1.7-2.228-.34a1.388,1.388,0,0,1-1.047-.782l-.935-1.99-.936,1.99a1.389,1.389,0,0,1-1.047.782l-2.227.34Z" transform="translate(-92.876 -31.286)" fill="#19191c"/><path d="M184.607,137.948a1.388,1.388,0,0,1-.607,2.709c-9-2.014-20.555,3.206-23.406,14.192a1.388,1.388,0,0,1-1.342,1.04,1.406,1.406,0,0,1-.349-.045,1.388,1.388,0,0,1-.995-1.692c3.254-12.54,16.432-18.5,26.7-16.2" transform="translate(-156.284 -61.146)" fill="#19191c"/><path d="M103.709,32.725a1.394,1.394,0,1,1-.012,0Z" transform="translate(-44.84 -14.556)" fill="#19191c"/><path d="M96.913,6.405a6.344,6.344,0,1,1,6.344,6.4,6.382,6.382,0,0,1-6.344-6.4m9.911,0a3.568,3.568,0,1,0-3.568,3.629,3.6,3.6,0,0,0,3.568-3.629" transform="translate(-46.354)" fill="#19191c"/></g><g transform="matrix(-0.259, 0.966, -0.966, -0.259, 230.437, 36.253)" clip-path="url(#b)"><path d="M172.283,23.707l.336,2.054-1.677-.926a1.239,1.239,0,0,0-1.2,0l-1.677.926.336-2.054a1.236,1.236,0,0,0-.336-1.064l-1.477-1.511,1.985-.3a1.239,1.239,0,0,0,.933-.7l.834-1.774.834,1.774a1.237,1.237,0,0,0,.933.7l1.985.3-1.477,1.511a1.237,1.237,0,0,0-.336,1.064" transform="translate(-152.209 -9.276)" fill="#8174c6"/><path d="M101.913,8.234a3.18,3.18,0,1,1,3.179,3.233,3.211,3.211,0,0,1-3.179-3.233" transform="translate(-54.387 -2.526)" fill="#e17db0"/><path d="M134.689,80.486l.834-1.774.834,1.774a1.237,1.237,0,0,0,.933.7l1.985.3L137.8,83a1.237,1.237,0,0,0-.336,1.064l.336,2.054-1.678-.926a1.233,1.233,0,0,0-1.195,0l-1.678.926.336-2.054A1.237,1.237,0,0,0,133.248,83l-1.476-1.511,1.985-.3a1.237,1.237,0,0,0,.933-.7" transform="translate(-100.162 -39.772)" fill="#eccb6d"/><path d="M190.478,121.493a1.242,1.242,0,1,1-.01,0Z" transform="translate(-181.024 -61.388)" fill="#19191c"/><path d="M138.8,19.968a1.237,1.237,0,0,1-2.032,1.411l-.006-.009a1.237,1.237,0,1,1,2.038-1.4" transform="translate(-102.267 -9.819)" fill="#19191c"/><path d="M149.788,98.65a1.237,1.237,0,0,1,1.685-.47l21.394,12.057a1.237,1.237,0,1,1-1.215,2.154l-21.394-12.057a1.237,1.237,0,0,1-.47-1.685" transform="translate(-143.217 -49.528)" fill="#19191c"/><path d="M149.087,46.848l5.62,5.663a1.237,1.237,0,1,1-1.755,1.742l-5.621-5.663a1.237,1.237,0,1,1,1.756-1.742" transform="translate(-123.473 -23.487)" fill="#19191c"/><path d="M185.985,66.834a1.23,1.23,0,0,1-.75-.255L166.461,52.218a1.237,1.237,0,1,1,1.5-1.965l18.773,14.362a1.237,1.237,0,0,1-.752,2.219" transform="translate(-165.031 -25.264)" fill="#19191c"/><path d="M114.811,53.334a1.237,1.237,0,0,1-1.729-.27L99.326,34.229a1.237,1.237,0,0,1,2-1.459L115.08,51.605a1.237,1.237,0,0,1-.269,1.728" transform="translate(-60.036 -16.302)" fill="#19191c"/><path d="M207.694,91.228a1.237,1.237,0,0,1-1.265,2.126l-.009-.005a1.237,1.237,0,1,1,1.273-2.12" transform="translate(-205.819 -46.007)" fill="#19191c"/><path d="M171.077,24.853a1.236,1.236,0,0,1-1.31.072L166.458,23.1l-3.308,1.826a1.237,1.237,0,0,1-1.819-1.282l.646-3.95L159.253,16.9a1.236,1.236,0,0,1,.7-2.087l3.714-.567,1.673-3.558a1.237,1.237,0,0,1,2.239,0l1.673,3.558,3.714.567a1.236,1.236,0,0,1,.7,2.087l-2.723,2.788.646,3.95a1.237,1.237,0,0,1-.508,1.211M168.224,16.6a1.237,1.237,0,0,1-.933-.7l-.834-1.774-.834,1.774a1.237,1.237,0,0,1-.933.7l-1.985.3,1.476,1.512a1.235,1.235,0,0,1,.336,1.063l-.336,2.055,1.678-.926a1.234,1.234,0,0,1,1.2,0l1.677.926-.336-2.055a1.235,1.235,0,0,1,.336-1.063l1.477-1.512Z" transform="translate(-148.323 -5.044)" fill="#19191c"/><path d="M126.509,84l.646-3.95-2.723-2.788a1.237,1.237,0,0,1,.7-2.087l3.714-.567,1.673-3.558a1.237,1.237,0,0,1,2.239,0l1.673,3.558,3.715.567a1.237,1.237,0,0,1,.7,2.087l-2.724,2.788.646,3.95a1.237,1.237,0,0,1-1.818,1.282l-3.308-1.826-3.308,1.826A1.237,1.237,0,0,1,126.509,84m2.852-5.232a1.237,1.237,0,0,1,.336,1.064l-.335,2.055,1.677-.926a1.234,1.234,0,0,1,1.2,0l1.677.926-.336-2.055a1.237,1.237,0,0,1,.336-1.064l1.477-1.511-1.985-.3a1.237,1.237,0,0,1-.933-.7l-.834-1.774-.834,1.774a1.237,1.237,0,0,1-.933.7l-1.985.3Z" transform="translate(-96.274 -35.539)" fill="#19191c"/><path d="M181.694,137.9a1.237,1.237,0,0,1-.541,2.414c-8.023-1.795-18.316,2.857-20.856,12.646a1.237,1.237,0,0,1-1.2.927,1.253,1.253,0,0,1-.311-.04,1.237,1.237,0,0,1-.887-1.508c2.9-11.174,14.642-16.487,23.791-14.438" transform="translate(-156.456 -69.458)" fill="#19191c"/><path d="M103.556,32.725a1.242,1.242,0,1,1-.01,0Z" transform="translate(-51.099 -16.535)" fill="#19191c"/><path d="M96.913,5.708a5.653,5.653,0,1,1,5.653,5.707,5.687,5.687,0,0,1-5.653-5.707m8.832,0a3.18,3.18,0,1,0-3.179,3.233,3.211,3.211,0,0,0,3.179-3.233" transform="translate(-51.861)" fill="#19191c"/></g></g><g transform="translate(951.949 319.77)"><g transform="translate(0 0)" clip-path="url(#c)"><path d="M44.5,36.67,32.94,25.107,25.107,32.94,36.67,44.5a9.876,9.876,0,0,1,2.749,6.839,5.47,5.47,0,1,0,10.856-1.067,5.47,5.47,0,1,0,1.067-10.856A9.876,9.876,0,0,1,44.5,36.67" transform="translate(20.842 20.843)" fill="#fff"/><path d="M44.5,36.67,32.94,25.107,25.107,32.94,36.67,44.5a9.876,9.876,0,0,1,2.749,6.839,5.47,5.47,0,1,0,10.856-1.067,5.47,5.47,0,1,0,1.067-10.856A9.876,9.876,0,0,1,44.5,36.67Z" transform="translate(20.842 20.843)" fill="none" stroke="#212121" stroke-linecap="round" stroke-linejoin="round" stroke-width="2.5"/><path d="M40.246,11.085C29.432.27,14.137-1.968,6.085,6.085s-5.814,23.347,5,34.161c6.885,6.885,15.584,10.282,23.074,9.767a8.334,8.334,0,0,1,6.464,2.414l1.94,1.942a8.347,8.347,0,1,0,11.8-11.8l-1.94-1.942a8.322,8.322,0,0,1-2.414-6.464c.514-7.491-2.884-16.189-9.767-23.074" transform="translate(1.038 1.039)" fill="#c47b44"/><path d="M40.246,11.085C29.432.27,14.137-1.968,6.085,6.085s-5.814,23.347,5,34.161c6.885,6.885,15.584,10.282,23.074,9.767a8.334,8.334,0,0,1,6.464,2.414l1.94,1.942a8.347,8.347,0,1,0,11.8-11.8l-1.94-1.942a8.322,8.322,0,0,1-2.414-6.464C50.528,26.668,47.129,17.97,40.246,11.085Z" transform="translate(1.038 1.039)" fill="none" stroke="#212121" stroke-linecap="round" stroke-linejoin="round" stroke-width="2.5"/></g></g><g transform="translate(894.461 428.961) rotate(-120)"><g transform="translate(0 0)" clip-path="url(#d)"><path d="M43.055,58.372H62.207A80.537,80.537,0,0,0,38.547,1.25L25,14.793A61.439,61.439,0,0,1,43.055,58.372" transform="translate(20.861 1.043)" fill="#c47b42"/><path d="M43.055,58.372H62.207A80.537,80.537,0,0,0,38.547,1.25L25,14.793A61.439,61.439,0,0,1,43.055,58.372Z" transform="translate(20.861 1.043)" fill="none" stroke="#212121" stroke-linecap="round" stroke-linejoin="round" stroke-width="2.5"/><path d="M68.974,54.174H1.25L49.14,6.284a67.468,67.468,0,0,1,19.834,47.89" transform="translate(1.043 5.243)" fill="#fede67"/><path d="M68.974,54.174H1.25L49.14,6.284A67.468,67.468,0,0,1,68.974,54.174Z" transform="translate(1.043 5.243)" fill="none" stroke="#212121" stroke-linecap="round" stroke-linejoin="round" stroke-width="2.5"/><path d="M24.95,24.265a8.483,8.483,0,0,1-15.267,5.1L21.56,17.484a8.5,8.5,0,0,1,3.39,6.781" transform="translate(8.079 14.587)" fill="#455c77"/><path d="M24.95,24.265a8.483,8.483,0,0,1-15.267,5.1L21.56,17.484A8.5,8.5,0,0,1,24.95,24.265Z" transform="translate(8.079 14.587)" fill="none" stroke="#212121" stroke-linecap="round" stroke-linejoin="round" stroke-width="2.5"/><path d="M34.847,22.364a5.1,5.1,0,1,1-5.1-5.1,5.1,5.1,0,0,1,5.1,5.1" transform="translate(20.569 14.405)" fill="#f0504f"/><path d="M34.847,22.364a5.1,5.1,0,1,1-5.1-5.1A5.1,5.1,0,0,1,34.847,22.364Z" transform="translate(20.569 14.405)" fill="none" stroke="#212121" stroke-linecap="round" stroke-linejoin="round" stroke-width="2.5"/><path d="M32.237,33.481a5.435,5.435,0,0,1-.629,2.559H21.945a5.464,5.464,0,1,1,10.292-2.559" transform="translate(17.784 23.377)" fill="#afcd93"/><path d="M32.237,33.481a5.435,5.435,0,0,1-.629,2.559H21.945a5.464,5.464,0,1,1,10.292-2.559Z" transform="translate(17.784 23.377)" fill="none" stroke="#212121" stroke-linecap="round" stroke-linejoin="round" stroke-width="2.5"/></g></g><g transform="translate(917.859 274.82)"><g transform="translate(-0.995 -0.995)" clip-path="url(#e)"><path d="M36.417,36.417a20.6,20.6,0,1,1,0-29.134A20.6,20.6,0,0,1,36.417,36.417Z" transform="translate(0.286 0.286)" fill="#c37b44" stroke="#212121" stroke-linecap="round" stroke-linejoin="round" stroke-width="2.5"/><path d="M31.81,31.81a13.684,13.684,0,1,1,0-19.352,13.684,13.684,0,0,1,0,19.352" transform="translate(0.002 0.002)" fill="#fdd24a"/><circle cx="13.683" cy="13.683" r="13.683" transform="translate(8.454 8.454)" fill="none" stroke="#212121" stroke-linecap="round" stroke-linejoin="round" stroke-width="2.5"/></g></g></g></svg>