<svg xmlns="http://www.w3.org/2000/svg" width="158" height="141" viewBox="0 0 158 141"><g transform="translate(-967 -269)"><path d="M5,0H153a5,5,0,0,1,5,5V36a0,0,0,0,1,0,0H0a0,0,0,0,1,0,0V5A5,5,0,0,1,5,0Z" transform="translate(967 269)" fill="#e6e6e6"/><path d="M0,0H158a0,0,0,0,1,0,0V102a5,5,0,0,1-5,5H5a5,5,0,0,1-5-5V0A0,0,0,0,1,0,0Z" transform="translate(967 303)" fill="#7a838b"/><g transform="translate(967 269)" fill="none" stroke="#212121" stroke-width="2.5"><rect width="158" height="141" rx="5" stroke="none"/><rect x="1.25" y="1.25" width="155.5" height="138.5" rx="3.75" fill="none"/></g><line x2="156.119" transform="translate(967.94 303.762)" fill="none" stroke="#212121" stroke-width="2.5"/><g transform="translate(1037 278)" fill="#bebebe" stroke="#212121" stroke-width="2.5"><rect width="77" height="19" rx="2" stroke="none"/><rect x="1.25" y="1.25" width="74.5" height="16.5" rx="0.75" fill="none"/></g><g transform="translate(980 278)" fill="#555" stroke="#212121" stroke-width="2.5"><circle cx="9.5" cy="9.5" r="9.5" stroke="none"/><circle cx="9.5" cy="9.5" r="8.25" fill="none"/></g><g transform="translate(1007 278)" fill="#555" stroke="#212121" stroke-width="2.5"><ellipse cx="9" cy="9.5" rx="9" ry="9.5" stroke="none"/><ellipse cx="9" cy="9.5" rx="7.75" ry="8.25" fill="none"/></g><g transform="translate(976 314)" fill="#e6e6e6"><path d="M 135 83.75 L 5 83.75 C 2.932236433029175 83.75 1.25 82.06776428222656 1.25 80 L 1.25 5 C 1.25 2.932236433029175 2.932236433029175 1.25 5 1.25 L 135 1.25 C 137.0677642822266 1.25 138.75 2.932236433029175 138.75 5 L 138.75 80 C 138.75 82.06776428222656 137.0677642822266 83.75 135 83.75 Z" stroke="none"/><path d="M 5 2.5 C 3.621505737304688 2.5 2.5 3.621498107910156 2.5 5 L 2.5 80 C 2.5 81.37850189208984 3.621505737304688 82.5 5 82.5 L 135 82.5 C 136.3784942626953 82.5 137.5 81.37850189208984 137.5 80 L 137.5 5 C 137.5 3.621498107910156 136.3784942626953 2.5 135 2.5 L 5 2.5 M 5 0 L 135 0 C 137.7614135742188 0 140 2.238578796386719 140 5 L 140 80 C 140 82.76142120361328 137.7614135742188 85 135 85 L 5 85 C 2.238555908203125 85 0 82.76142120361328 0 80 L 0 5 C 0 2.238578796386719 2.238555908203125 0 5 0 Z" stroke="none" fill="#212121"/></g><g transform="translate(989.5 318.721)"><g transform="translate(34.828 0)"><path d="M4868.484-2999.868s-3.451,1.261-9.426-4.713-5.13-15.8,4.573-23.564,25.921-11.228,25.921-11.228l6.515,6.515s-8.178,16.356-17.187,24.119" transform="translate(-4855.289 3054.06)" fill="#c47b44"/><path d="M4868.484-2999.868s-3.451,1.261-9.426-4.713-5.13-15.8,4.573-23.564,25.921-11.228,25.921-11.228l6.515,6.515s-8.178,16.356-17.187,24.119" transform="translate(-4855.289 3054.06)" fill="none" stroke="#212121" stroke-width="2.5"/><path d="M4875.274-3035.406l4.3-4.852" transform="translate(-4837.684 3053.281)" fill="none" stroke="#212121" stroke-width="2.5"/><g transform="matrix(0.819, 0.574, -0.574, 0.819, 41.673, 0)" fill="#9f5c29" stroke="#212121" stroke-width="2.5"><ellipse cx="7.524" cy="5.643" rx="7.524" ry="5.643" stroke="none"/><ellipse cx="7.524" cy="5.643" rx="6.274" ry="4.393" fill="none"/></g></g><path d="M4821.773-2987.891s-.416-59.741,53.643-50.593c14.271,2.415,24.63,7.081,32.374,12.809a47.325,47.325,0,0,1,19.605,37.784Z" transform="translate(-4821.773 3067.17)" fill="#c47b44"/><path d="M4821.773-2987.891s-.416-59.741,53.643-50.593c14.271,2.415,24.63,7.081,32.374,12.809a47.325,47.325,0,0,1,19.605,37.784Z" transform="translate(-4821.773 3067.17)" fill="none" stroke="#212121" stroke-width="2.5"/><g transform="translate(63.042 13.167)"><path d="M4868.484-2999.868s-3.451,1.261-9.426-4.713-5.13-15.8,4.573-23.564,25.921-11.228,25.921-11.228l6.515,6.515s-8.178,16.356-17.187,24.119" transform="translate(-4855.289 3054.06)" fill="#c47b44"/><path d="M4868.484-2999.868s-3.451,1.261-9.426-4.713-5.13-15.8,4.573-23.564,25.921-11.228,25.921-11.228l6.515,6.515s-8.178,16.356-17.187,24.119" transform="translate(-4855.289 3054.06)" fill="none" stroke="#212121" stroke-width="2.5"/><path d="M4875.274-3035.406l4.3-4.852" transform="translate(-4837.684 3053.281)" fill="none" stroke="#212121" stroke-width="2.5"/><g transform="matrix(0.819, 0.574, -0.574, 0.819, 41.673, 0)" fill="#9f5c29" stroke="#212121" stroke-width="2.5"><ellipse cx="7.524" cy="5.643" rx="7.524" ry="5.643" stroke="none"/><ellipse cx="7.524" cy="5.643" rx="6.274" ry="4.393" fill="none"/></g></g><path d="M4832.038-3027.8s-1.524,4.02,0,7.485" transform="translate(-4813.327 3077.42)" fill="none" stroke="#212121" stroke-width="2.5"/><path d="M4840.542-3033.182a9.323,9.323,0,0,0-4.99,4.99" transform="translate(-4809.634 3072.681)" fill="none" stroke="#212121" stroke-width="2.5"/><path d="M4835.552-3022.939h6.376" transform="translate(-4809.634 3081.705)" fill="none" stroke="#212121" stroke-width="2.5"/><path d="M4863.975-3029.2s-4.02,3.742-3.881,8.456" transform="translate(-4788.018 3076.186)" fill="none" stroke="#212121" stroke-width="2.5"/></g></g></svg>