<svg id="그룹_474052" data-name="그룹 474052" xmlns="http://www.w3.org/2000/svg" xmlns:xlink="http://www.w3.org/1999/xlink" width="50" height="50" viewBox="0 0 50 50">
  <defs>
    <clipPath id="clip-path">
      <rect id="사각형_354171" data-name="사각형 354171" width="50" height="50" fill="none"/>
    </clipPath>
  </defs>
  <g id="그룹_474051" data-name="그룹 474051" transform="translate(0 0)" clip-path="url(#clip-path)">
    <g id="그룹_474053" data-name="그룹 474053" transform="translate(1.35 0.036)">
      <path id="패스_862993" data-name="패스 862993" d="M.75,22.756a5.913,5.913,0,0,1,11.825,0" transform="translate(-0.75 2.627)" fill="none" stroke="#181919" stroke-linecap="round" stroke-linejoin="round" stroke-width="1.5"/>
      <path id="패스_862994" data-name="패스 862994" d="M4.436,28.237A5.914,5.914,0,0,1,6.664,16.845" transform="translate(-0.75 2.627)" fill="none" stroke="#181919" stroke-linecap="round" stroke-linejoin="round" stroke-width="1.5"/>
      <path id="패스_862995" data-name="패스 862995" d="M38.715,28.237a5.914,5.914,0,0,0-2.227-11.392" transform="translate(4.898 2.627)" fill="none" stroke="#181919" stroke-linecap="round" stroke-linejoin="round" stroke-width="1.5"/>
      <path id="패스_862996" data-name="패스 862996" d="M10.961,22.756a5.913,5.913,0,0,1,11.825,0" transform="translate(0.864 2.627)" fill="none" stroke="#181919" stroke-linecap="round" stroke-linejoin="round" stroke-width="1.5"/>
      <path id="패스_862997" data-name="패스 862997" d="M21.172,22.756a5.913,5.913,0,0,1,11.825,0" transform="translate(2.477 2.627)" fill="none" stroke="#181919" stroke-linecap="round" stroke-linejoin="round" stroke-width="1.5"/>
      <path id="패스_862998" data-name="패스 862998" d="M31.383,22.756a5.913,5.913,0,0,1,11.825,0" transform="translate(4.092 2.627)" fill="none" stroke="#181919" stroke-linecap="round" stroke-linejoin="round" stroke-width="1.5"/>
      <path id="패스_862999" data-name="패스 862999" d="M6.272,30.643A4.964,4.964,0,0,0,13.6,26.281" transform="translate(0.122 4.118)" fill="none" stroke="#181919" stroke-linecap="round" stroke-linejoin="round" stroke-width="1.5"/>
      <path id="패스_863000" data-name="패스 863000" d="M12.6,26.281a4.962,4.962,0,0,0,9.925,0" transform="translate(1.122 4.118)" fill="none" stroke="#181919" stroke-linecap="round" stroke-linejoin="round" stroke-width="1.5"/>
      <path id="패스_863001" data-name="패스 863001" d="M21.172,26.281a4.964,4.964,0,0,0,9.927,0" transform="translate(2.477 4.118)" fill="none" stroke="#181919" stroke-linecap="round" stroke-linejoin="round" stroke-width="1.5"/>
      <path id="패스_863002" data-name="패스 863002" d="M29.744,26.281A4.963,4.963,0,0,0,37.48,30.4" transform="translate(3.833 4.118)" fill="none" stroke="#181919" stroke-linecap="round" stroke-linejoin="round" stroke-width="1.5"/>
      <path id="패스_863003" data-name="패스 863003" d="M43.85,26.9V44.878H3.941V26.9" transform="translate(-0.247 4.217)" fill="none" stroke="#181919" stroke-linecap="round" stroke-linejoin="round" stroke-width="1.5"/>
      <line id="선_1123" data-name="선 1123" x2="37.692" transform="translate(3.695 40.072)" fill="none" stroke="#181919" stroke-linecap="round" stroke-linejoin="round" stroke-width="1.5"/>
      <line id="선_1124" data-name="선 1124" x2="35.62" transform="translate(3.695 43.954)" fill="none" stroke="#181919" stroke-linecap="round" stroke-linejoin="round" stroke-width="1.5"/>
      <line id="선_1125" data-name="선 1125" y2="10.616" transform="translate(23.649 11.811)" fill="none" stroke="#181919" stroke-linecap="round" stroke-linejoin="round" stroke-width="1.5"/>
      <path id="패스_863004" data-name="패스 863004" d="M24.187,5.045a2.653,2.653,0,1,1-5.306,0c0-1.466,2.653-4.3,2.653-4.3S24.187,3.579,24.187,5.045Z" transform="translate(1.282 -0.75)" fill="#f6971c"/>
      <path id="패스_863005" data-name="패스 863005" d="M24.187,5.045a2.653,2.653,0,1,1-5.306,0c0-1.466,2.653-4.3,2.653-4.3S24.187,3.579,24.187,5.045Z" transform="translate(2.114 0.083)" fill="none" stroke="#181919" stroke-linecap="round" stroke-linejoin="round" stroke-width="1.5"/>
    </g>
  </g>
</svg>
