<svg xmlns="http://www.w3.org/2000/svg" xmlns:xlink="http://www.w3.org/1999/xlink" width="50" height="50" viewBox="0 0 50 50">
  <defs>
    <clipPath id="clip-path">
      <rect id="사각형_354135" data-name="사각형 354135" width="50" height="50" fill="none"/>
    </clipPath>
  </defs>
  <g id="icon-치킨" transform="translate(2.575 0.001)">
    <g id="그룹_474014" data-name="그룹 474014" transform="translate(-2.575 -0.001)" clip-path="url(#clip-path)">
      <g id="그룹_474015" data-name="그룹 474015" transform="translate(1.195 0.683)">
        <path id="패스_862445" data-name="패스 862445" d="M45.844,14.521A14.569,14.569,0,0,0,31.323,0C23.336,0,19.657,6.98,16.861,14.462a56.228,56.228,0,0,1-4.788,8.613,2.787,2.787,0,0,0,.366,3.486l3.422,3.422,3.422,3.422a2.785,2.785,0,0,0,3.485.366,56.3,56.3,0,0,1,8.615-4.788c7.482-2.8,14.462-6.475,14.462-14.462" transform="translate(1.766 0)" fill="#f6971c"/>
        <path id="패스_862446" data-name="패스 862446" d="M45.262,15.665A14.569,14.569,0,0,0,30.741,1.144c-7.988,0-11.666,6.98-14.462,14.462a56.229,56.229,0,0,1-4.788,8.613,2.787,2.787,0,0,0,.366,3.486l3.422,3.422L18.7,34.549a2.785,2.785,0,0,0,3.485.366A56.3,56.3,0,0,1,30.8,30.127C38.282,27.331,45.262,23.653,45.262,15.665Z" transform="translate(1.647 0.233)" fill="none" stroke="#181919" stroke-miterlimit="10" stroke-width="1.5"/>
        <path id="패스_862447" data-name="패스 862447" d="M13.142,37.315l.026-.026,7.478-7.478L14.537,23.7,7.06,31.178l-.023.023a3.961,3.961,0,1,0-.491,6.389c.057.055.112.114.167.176a3.964,3.964,0,1,0,6.429-.451Z" transform="translate(-0.5 4.827)" fill="none" stroke="#181919" stroke-miterlimit="10" stroke-width="1.5"/>
      </g>
    </g>
  </g>
</svg>
