<svg xmlns="http://www.w3.org/2000/svg" xmlns:xlink="http://www.w3.org/1999/xlink" width="58" height="50" viewBox="0 0 58 50">
  <defs>
    <clipPath id="clip-path">
      <rect id="사각형_354141" data-name="사각형 354141" width="58" height="50" transform="translate(0 0)" fill="none"/>
    </clipPath>
  </defs>
  <g id="그룹_474054" data-name="그룹 474054" transform="translate(-6.938 7.278)">
    <g id="그룹_474027" data-name="그룹 474027" transform="translate(6.937 -7.278)" clip-path="url(#clip-path)">
      <g id="그룹_474029" data-name="그룹 474029" transform="translate(1.493 8.461)">
        <path id="패스_862487" data-name="패스 862487" d="M33.2,23.847l-4.39-2.075a1.174,1.174,0,0,0-1.03.012l-4.341,2.173a1.177,1.177,0,0,1-1.7-1.2l.617-4.816a1.179,1.179,0,0,0-.33-.977l-3.409-3.456a1.178,1.178,0,0,1,.62-1.985l4.77-.9a1.178,1.178,0,0,0,.827-.615l2.234-4.311a1.178,1.178,0,0,1,2.079-.023l2.332,4.258a1.177,1.177,0,0,0,.841.6l4.79.793a1.177,1.177,0,0,1,.665,1.969l-3.329,3.533a1.177,1.177,0,0,0-.308.985l.726,4.8A1.177,1.177,0,0,1,33.2,23.847" transform="translate(3.602 0.474)" fill="#f6971c"/>
        <path id="패스_862488" data-name="패스 862488" d="M52.773.563H3.574A3.075,3.075,0,0,0,.5,3.638V11.13a1.019,1.019,0,0,0,.85,1,4.861,4.861,0,0,1,0,9.571,1.021,1.021,0,0,0-.85,1V30.2a3.075,3.075,0,0,0,3.074,3.075h49.2A3.076,3.076,0,0,0,55.848,30.2V3.638A3.076,3.076,0,0,0,52.773.563Z" transform="translate(-0.5 -0.563)" fill="none" stroke="#181919" stroke-miterlimit="10" stroke-width="1.5"/>
        <line id="선_1119" data-name="선 1119" y2="31.868" transform="translate(12.433 1.209)" fill="none" stroke="#181919" stroke-linecap="round" stroke-miterlimit="10" stroke-width="1.5" stroke-dasharray="3 4"/>
        <path id="패스_862489" data-name="패스 862489" d="M34.39,25.188l-4.525-2.139a1.21,1.21,0,0,0-1.062.012L24.327,25.3a1.214,1.214,0,0,1-1.748-1.239l.636-4.965a1.214,1.214,0,0,0-.34-1.007l-3.515-3.564A1.214,1.214,0,0,1,20,12.483l4.918-.929a1.213,1.213,0,0,0,.853-.635l2.3-4.444a1.215,1.215,0,0,1,2.144-.023l2.4,4.39a1.209,1.209,0,0,0,.866.614l4.937.817a1.214,1.214,0,0,1,.685,2.031l-3.432,3.643a1.212,1.212,0,0,0-.316,1.014l.748,4.949A1.214,1.214,0,0,1,34.39,25.188Z" transform="translate(3.769 0.65)" fill="none" stroke="#181919" stroke-miterlimit="10" stroke-width="1.5"/>
      </g>
    </g>
  </g>
</svg>
