<svg xmlns="http://www.w3.org/2000/svg" xmlns:xlink="http://www.w3.org/1999/xlink" width="32" height="32" viewBox="0 0 32 32"><defs><clipPath id="a"><rect width="32" height="32" transform="translate(812 4092)" fill="#fff" stroke="#707070" stroke-width="1"/></clipPath></defs><g transform="translate(-812 -4092)" clip-path="url(#a)"><g transform="translate(812 4092)"><path d="M0,0H32V32H0Z" fill="none"/><path d="M4,4H28a1.333,1.333,0,0,1,1.333,1.333V26.667A1.333,1.333,0,0,1,28,28H4a1.333,1.333,0,0,1-1.333-1.333V5.333A1.333,1.333,0,0,1,4,4ZM16.08,15.577,7.531,8.317,5.8,10.349,16.1,19.089l10.108-8.747L24.461,8.325l-8.38,7.252Z"/></g></g></svg>