<svg xmlns="http://www.w3.org/2000/svg" xmlns:xlink="http://www.w3.org/1999/xlink" width="32" height="32" viewBox="0 0 32 32"><defs><clipPath id="a"><rect width="32" height="32" transform="translate(753 2794)" fill="#fff" stroke="#707070" stroke-width="1"/></clipPath></defs><g transform="translate(-753 -2794)" clip-path="url(#a)"><g transform="translate(757.672 2797.524)"><path d="M22.372,11.212a1.08,1.08,0,0,0-.089-1.546L12.158.806a1.262,1.262,0,0,0-1.646.019L.352,10.138A1.074,1.074,0,0,0,.3,11.682l.255.265a1.111,1.111,0,0,0,1.525.117l.759-.68v9.955a1.105,1.105,0,0,0,1.105,1.105h3.96a1.105,1.105,0,0,0,1.105-1.105V14.374h5.051v6.964a1.044,1.044,0,0,0,1.038,1.1h4.2A1.105,1.105,0,0,0,20.4,21.338V11.524l.468.411c.258.227.8.045,1.211-.407Z" transform="translate(0 0)" fill="#010002"/></g></g></svg>