<svg xmlns="http://www.w3.org/2000/svg" xmlns:xlink="http://www.w3.org/1999/xlink" width="32" height="32" viewBox="0 0 32 32"><defs><clipPath id="a"><rect width="32" height="32" transform="translate(457 2535)" fill="#fff" stroke="#707070" stroke-width="1"/></clipPath></defs><g transform="translate(-457 -2535)" clip-path="url(#a)"><g transform="translate(461.365 2539.363)"><path d="M23.239,6.843A8.5,8.5,0,0,0,22.7,4.019,5.962,5.962,0,0,0,19.292.614,8.526,8.526,0,0,0,16.469.073C15.223.014,14.827,0,11.668,0s-3.555.014-4.8.068A8.507,8.507,0,0,0,4.047.609,5.679,5.679,0,0,0,1.983,1.955,5.73,5.73,0,0,0,.642,4.015,8.527,8.527,0,0,0,.1,6.838C.042,8.084.028,8.479.028,11.639s.014,3.555.068,4.8A8.5,8.5,0,0,0,.637,19.26a5.961,5.961,0,0,0,3.405,3.405,8.528,8.528,0,0,0,2.824.541c1.241.055,1.637.068,4.8.068s3.555-.013,4.8-.068a8.5,8.5,0,0,0,2.823-.541,5.953,5.953,0,0,0,3.406-3.405,8.533,8.533,0,0,0,.541-2.824c.055-1.241.068-1.637.068-4.8S23.293,8.084,23.239,6.843Zm-2.1,9.5a6.379,6.379,0,0,1-.4,2.16,3.861,3.861,0,0,1-2.21,2.21,6.4,6.4,0,0,1-2.16.4c-1.228.055-1.6.068-4.7.068s-3.478-.013-4.7-.068a6.376,6.376,0,0,1-2.16-.4,3.581,3.581,0,0,1-1.337-.868,3.618,3.618,0,0,1-.868-1.337,6.4,6.4,0,0,1-.4-2.16c-.055-1.228-.068-1.6-.068-4.7s.013-3.478.068-4.7a6.376,6.376,0,0,1,.4-2.16,3.538,3.538,0,0,1,.873-1.337,3.613,3.613,0,0,1,1.337-.868,6.406,6.406,0,0,1,2.16-.4c1.228-.055,1.6-.068,4.7-.068s3.478.014,4.7.068a6.379,6.379,0,0,1,2.16.4,3.579,3.579,0,0,1,1.337.868,3.618,3.618,0,0,1,.868,1.337,6.405,6.405,0,0,1,.4,2.16c.055,1.228.068,1.6.068,4.7S21.2,15.118,21.143,16.345Zm0,0" transform="translate(-0.028 0)"/><path d="M13.79,7.783a5.979,5.979,0,1,0,5.979,5.979A5.98,5.98,0,0,0,13.79,7.783Zm0,9.857a3.878,3.878,0,1,1,3.878-3.878A3.879,3.879,0,0,1,13.79,17.64Zm0,0" transform="translate(-2.15 -2.122)"/><path d="M25.449,6.934a1.4,1.4,0,1,1-1.4-1.4A1.4,1.4,0,0,1,25.449,6.934Zm0,0" transform="translate(-6.199 -1.51)"/></g></g></svg>