<svg xmlns="http://www.w3.org/2000/svg" width="26" height="26" viewBox="0 0 26 26"><g transform="translate(2457 24263)"><rect width="26" height="26" transform="translate(-2457 -24263)" fill="none"/><g transform="translate(280 -151)"><g transform="translate(-2730 -24111)" fill="none" stroke="#000" stroke-width="2.5"><circle cx="6" cy="6" r="6" stroke="none"/><circle cx="6" cy="6" r="4.75" fill="none"/></g><g transform="translate(-2736 -24098)" fill="none" stroke-linecap="round"><path d="M0,12H24A12,12,0,0,0,0,12Z" stroke="none"/><path d="M 21.166259765625 9.5 C 20.06614112854004 5.470531463623047 16.37347221374512 2.5 12 2.5 C 7.626527309417725 2.5 3.933858394622803 5.470531463623047 2.833740949630737 9.5 L 21.166259765625 9.5 M 24 12 L -1.77635683940025e-15 12 C -1.77635683940025e-15 5.372399806976318 5.372399806976318 -8.881784197001252e-16 12 -8.881784197001252e-16 C 18.62759971618652 -8.881784197001252e-16 24 5.372399806976318 24 12 Z" stroke="none" fill="#000"/></g></g></g></svg>