<svg xmlns="http://www.w3.org/2000/svg" width="34" height="34" viewBox="0 0 34 34"><g transform="translate(-360 -415)"><circle cx="17" cy="17" r="17" transform="translate(360 415)"/><g transform="translate(-4.685 -574)"><g transform="translate(373.068 996.473)"><path d="M15.7,0,11.009,4.682,9.719.9,8.758,5.116,2.034,1.75,6.942,6.6l-5.485.288,5.029,1.5L0,13.846l8.073-3.122.565,5.806,1.8-5.551,4.4,3.136L12.689,9.105l6.054.568-5.32-2.336L19.551,3.7l-6.4,1.789Z" transform="translate(0 0)" fill="#faf139"/><path d="M15.7,0,11.009,4.682,9.719.9,8.758,5.116,2.034,1.75,6.942,6.6l-5.485.288,5.029,1.5L0,13.846l8.073-3.122.565,5.806,1.8-5.551,4.4,3.136L12.689,9.105l6.054.568-5.32-2.336L19.551,3.7l-6.4,1.789Z" transform="translate(0 1.458)" fill="#fa9239"/></g><g transform="translate(371.895 1000.663)"><path d="M39.783,11.342,42.535,12.6a5.828,5.828,0,0,0-.594,1.742L38.914,12.88a5,5,0,0,0,.869-1.538" transform="translate(-31.8 -9.268)" fill="#d4000b" fill-rule="evenodd"/><path d="M38.932,1.893q2.084,1.051,4.264,2a11.7,11.7,0,0,1,.758-1.615A21.5,21.5,0,0,0,39.824,0a16.071,16.071,0,0,1-.892,1.893" transform="translate(-31.814)" fill="#d4000b" fill-rule="evenodd"/><path d="M7.451,18.109a6.075,6.075,0,0,1,5.012,6.96A6.075,6.075,0,0,1,5.122,29.5,6.075,6.075,0,0,1,.11,22.544a6.075,6.075,0,0,1,7.341-4.435" transform="translate(0 -14.684)" fill="#d4000b" fill-rule="evenodd"/></g><rect width="24" height="24" transform="translate(369.685 994)" fill="none"/></g></g></svg>