<svg xmlns="http://www.w3.org/2000/svg" width="25" height="25" viewBox="0 0 25 25"><g transform="translate(-7619 713)"><rect width="25" height="25" transform="translate(7619 -713)" fill="none"/><path d="M14.043,17.948a1,1,0,0,0,1-1V14.957a1,1,0,0,0-2.007,0v1.993A1,1,0,0,0,14.043,17.948Zm-4.014,0a1,1,0,0,0,1-1V14.957a1,1,0,0,0-2.007,0v1.993A1,1,0,0,0,10.028,17.948ZM19.06,5.987H17.675L15.939,2.548a1.007,1.007,0,0,0-1.78-.142.991.991,0,0,0-.007,1.039l1.275,2.542H8.643L9.918,3.445a.994.994,0,0,0-.474-1.273,1.007,1.007,0,0,0-1.313.376L6.4,5.987H5.011a2.987,2.987,0,0,0-.923,5.821l.743,7.436a3,3,0,0,0,3.011,2.691h8.41a3,3,0,0,0,3.011-2.691L20,11.808a2.988,2.988,0,0,0-.943-5.821ZM17.244,19.044a1,1,0,0,1-1,.9H7.831a1,1,0,0,1-1-.9l-.713-7.077H17.956Zm1.816-9.07H5.011a1,1,0,1,1,0-1.993H19.06a1,1,0,1,1,0,1.993Z" transform="translate(7619.955 -712.934)" fill="#212121"/></g></svg>