<svg xmlns="http://www.w3.org/2000/svg" width="25" height="25" viewBox="0 0 25 25"><g transform="translate(-7557 713)"><rect width="25" height="25" transform="translate(7557 -713)" fill="none"/><g transform="translate(-188 -58)"><g transform="translate(7747 -649.65)" fill="none" stroke-linecap="round"><path d="M19,14.5H2a2,2,0,0,1-2-2V9.968A2.732,2.732,0,0,0,2.74,7.25,2.732,2.732,0,0,0,0,4.532V2A2,2,0,0,1,2,0H19a2,2,0,0,1,2,2V4.532a2.735,2.735,0,0,0-1.936.8,2.69,2.69,0,0,0-.8,1.921A2.732,2.732,0,0,0,21,9.968V12.5A2,2,0,0,1,19,14.5Z" stroke="none"/><path d="M 18.99990081787109 14.49990081787109 C 20.10259056091309 14.49990081787109 20.99970054626465 13.60279083251953 20.99970054626465 12.50010013580322 L 20.99970054626465 9.968400001525879 C 19.48958015441895 9.968400001525879 18.26099967956543 8.749110221862793 18.26099967956543 7.250400543212891 C 18.26099967956543 6.525750637054443 18.54615020751953 5.84358024597168 19.06392097473145 5.329550266265869 C 19.58169937133789 4.815520286560059 20.26881980895996 4.532450199127197 20.99970054626465 4.531500339508057 L 20.99970054626465 1.999800443649292 C 20.99970054626465 0.8971104025840759 20.10259056091309 4.089355343239731e-07 18.99990081787109 4.089355343239731e-07 L 1.999800324440002 4.089355343239731e-07 C 0.8971102833747864 4.089355343239731e-07 2.731323149873788e-07 0.8971104025840759 2.731323149873788e-07 1.999800443649292 L 2.731323149873788e-07 4.531500339508057 C 1.51062023639679 4.531500339508057 2.73960018157959 5.751190185546875 2.73960018157959 7.250400543212891 C 2.73960018157959 8.748559951782227 1.511900305747986 9.967400550842285 2.731323149873788e-07 9.968400001525879 L 2.731323149873788e-07 12.50010013580322 C 2.731323149873788e-07 13.60279083251953 0.8971102833747864 14.49990081787109 1.999800324440002 14.49990081787109 L 18.99990081787109 14.49990081787109 M 18.99990081787109 16.29990005493164 L 1.999800324440002 16.29990005493164 C -0.09541972726583481 16.29990005493164 -1.799999713897705 14.59532070159912 -1.799999713897705 12.50010013580322 L -1.799999713897705 8.169589996337891 L -0.001189726870507002 8.168400764465332 C 0.5175602436065674 8.168060302734375 0.9396002888679504 7.756240367889404 0.9396002888679504 7.250400543212891 C 0.9396002888679504 6.743720531463623 0.5181002616882324 6.33150053024292 2.731323149873788e-07 6.33150053024292 L -1.799999713897705 6.33150053024292 L -1.799999713897705 1.999800443649292 C -1.799999713897705 -0.09541959315538406 -0.09541972726583481 -1.799999594688416 1.999800324440002 -1.799999594688416 L 18.99990081787109 -1.799999594688416 C 21.09511947631836 -1.799999594688416 22.7996997833252 -0.09541959315538406 22.7996997833252 1.999800443649292 L 22.7996997833252 6.329160213470459 L 21.00204086303711 6.33150053024292 C 20.74493026733398 6.331830501556396 20.51325988769531 6.427090644836426 20.33208084106445 6.606960296630859 C 20.15473937988281 6.783020496368408 20.06100082397461 7.005520343780518 20.06100082397461 7.250400543212891 C 20.06100082397461 7.756590366363525 20.48209953308105 8.168400764465332 20.99970054626465 8.168400764465332 L 22.7996997833252 8.168400764465332 L 22.7996997833252 12.50010013580322 C 22.7996997833252 14.59532070159912 21.09511947631836 16.29990005493164 18.99990081787109 16.29990005493164 Z" stroke="none" fill="#212121"/></g><path d="M10345.99,7515.65v3" transform="translate(-2594 -8165.65)" fill="none" stroke="#212121" stroke-linecap="round" stroke-width="1.8"/><path d="M10345.99,7515.65v4" transform="translate(-2594 -8159.364)" fill="none" stroke="#212121" stroke-linecap="round" stroke-width="1.8"/><path d="M10345.99,7515.65v1.5" transform="translate(-2594 -8152.15)" fill="none" stroke="#212121" stroke-linecap="round" stroke-width="1.8"/></g></g></svg>