<svg xmlns="http://www.w3.org/2000/svg" xmlns:xlink="http://www.w3.org/1999/xlink" width="18" height="8.402" viewBox="0 0 18 8.402"><defs><clipPath id="a"><rect width="18" height="8.402" transform="translate(0 0)" fill="none"/></clipPath></defs><g transform="translate(0 0)" clip-path="url(#a)"><path d="M138.793,1.639c.083-.218,1.508-.281,2.194-.079s.909.26,1.335.036S144.089.023,144.284,0a.379.379,0,0,1,.375.361c-.007.166-1.667,1.486-1.876,1.8a1.445,1.445,0,0,0-.353.988,6.311,6.311,0,0,1-.859,2.2c-.144.065-.31-.173-.31-.577s-.022-.628-.2-.707-1.667.382-1.8.123.3-.758.541-1,.224-.621.029-.729-1.111-.613-1.032-.823" transform="translate(-126.66 0)" fill="#00aa14"/><path d="M14.6,24.168c0-.4-.022-.628-.2-.707s-1.667.382-1.8.123c-.072-.137.017-.341.151-.538a3.543,3.543,0,0,1,.346-.419l.044-.046c.014-.015.028-.03.04-.046l.012-.016.023-.032.012-.02.017-.03.011-.022.013-.029.009-.024.01-.027.008-.026c0-.009,0-.017.007-.026l.006-.027c0-.008,0-.016,0-.023s0-.019,0-.029,0-.013,0-.02,0-.021,0-.031,0-.01,0-.016,0-.023,0-.033V22.1a.313.313,0,0,0-.143-.244,5.38,5.38,0,0,1-.915-.605,3.07,3.07,0,0,0-1.271.656c-.664.606-2.251,2.266-4.257,2.583a8.751,8.751,0,0,1-4.935-.534C.69,23.417.185,22.984.04,23.1s.087.693.924,1.732A8.812,8.812,0,0,0,7.112,27.79c2.684-.072,6.018-.736,7.591-3.03.016-.023.029-.044.044-.067a.816.816,0,0,1-.145-.525" transform="translate(0 -19.389)" fill="#d60018"/><path d="M7.111,46.346A8.812,8.812,0,0,1,.963,43.388,7.88,7.88,0,0,1,.18,42.264a.153.153,0,0,0-.141,0c-.144.115.087.693.924,1.732a8.812,8.812,0,0,0,6.148,2.958c2.684-.072,6.018-.736,7.591-3.031.016-.023.029-.044.044-.067a.724.724,0,0,1-.14-.413c-1.609,2.187-4.863,2.827-7.495,2.9" transform="translate(0 -38.558)" fill="#ba0116"/></g></svg>