<svg xmlns="http://www.w3.org/2000/svg" width="15" height="16" viewBox="0 0 15 16"><g transform="translate(0)"><path d="M7.986,1a2.1,2.1,0,0,1,1.486.622,2.064,2.064,0,0,1,.585,1.493.82.82,0,0,0,.117.394.9.9,0,0,0,1.231.32,2.086,2.086,0,0,1,2.831.754l.485.833a.655.655,0,0,1,.033.066,2.056,2.056,0,0,1-.786,2.737.885.885,0,0,0-.33.325.9.9,0,0,0-.093.682.882.882,0,0,0,.42.543,2.041,2.041,0,0,1,.754,2.808l-.516.854a2.081,2.081,0,0,1-2.821.741.931.931,0,0,0-.434-.12h0a.9.9,0,0,0-.624.261.88.88,0,0,0-.262.634A2.069,2.069,0,0,1,7.986,17H7.011a2.066,2.066,0,0,1-2.072-2.056.827.827,0,0,0-.117-.411A.894.894,0,0,0,3.6,14.2a2.118,2.118,0,0,1-1.589.189,2.083,2.083,0,0,1-1.244-.981l-.486-.832a2.044,2.044,0,0,1,.754-2.8.895.895,0,0,0,0-1.556A2.052,2.052,0,0,1,.275,5.417L.8,4.558A2.078,2.078,0,0,1,3.62,3.812a.856.856,0,0,0,.429.121.9.9,0,0,0,.9-.885,2.023,2.023,0,0,1,.6-1.445A2.061,2.061,0,0,1,7.011,1Zm0,1.158H7.011a.9.9,0,0,0-.637.262.879.879,0,0,0-.261.633A2.075,2.075,0,0,1,4.042,5.091a2.018,2.018,0,0,1-1.01-.28.909.909,0,0,0-1.226.337l-.527.859A.893.893,0,0,0,1.616,7.22a2.049,2.049,0,0,1,0,3.561A.889.889,0,0,0,1.287,12l.491.84a.914.914,0,0,0,.549.438.928.928,0,0,0,.691-.08,2.063,2.063,0,0,1,2.813.754,1.968,1.968,0,0,1,.276.988.9.9,0,0,0,.905.9h.975a.9.9,0,0,0,.905-.893A2.056,2.056,0,0,1,10.966,12.9a2.13,2.13,0,0,1,1,.273.914.914,0,0,0,1.237-.325l.516-.855a.889.889,0,0,0-.331-1.214,2.047,2.047,0,0,1,0-3.557A.9.9,0,0,0,13.709,6a.43.43,0,0,1-.027-.053l-.456-.785a.91.91,0,0,0-1.234-.331A2.072,2.072,0,0,1,9.17,4.1,1.961,1.961,0,0,1,8.891,3.1a.9.9,0,0,0-.905-.946ZM7.5,6.386A2.615,2.615,0,1,1,4.868,9,2.628,2.628,0,0,1,7.5,6.386Zm0,1.158A1.456,1.456,0,1,0,8.969,9,1.464,1.464,0,0,0,7.5,7.544Z" transform="translate(0 -1)" fill="#6b6b6b" fill-rule="evenodd"/></g></svg>