<svg xmlns="http://www.w3.org/2000/svg" xmlns:xlink="http://www.w3.org/1999/xlink" width="34" height="48" viewBox="0 0 34 48"><defs><clipPath id="a"><rect width="8.707" height="16" fill="none"/></clipPath></defs><path d="M17,0c9.389,0,17,7.332,17,16.377S16.283,48,16.283,48,0,25.422,0,16.377,7.611,0,17,0Z" fill="#d4000b"/><g transform="matrix(0.966, -0.259, 0.259, 0.966, 11.066, 10.308)"><rect width="18" height="18" transform="translate(-5 -1)" fill="none"/><g transform="translate(-0.3)" clip-path="url(#a)"><path d="M9.164,4.832a4.332,4.332,0,0,0-8.664,0A15.33,15.33,0,0,0,1.6,8.571a6.554,6.554,0,0,1,.949,2.3c.095.854-.019,1.537.626,1.86a5.824,5.824,0,0,0,3.323,0c.645-.323.531-1.006.626-1.86a6.555,6.555,0,0,1,.949-2.3A15.332,15.332,0,0,0,9.164,4.832Z" transform="translate(-0.478 -0.478)" fill="#fff"/><path d="M64.471,289.089v1.684a.921.921,0,0,0-.121.009h-.013a.916.916,0,1,0,.831,1.5.916.916,0,1,0,.831-1.5h-.013a.922.922,0,0,0-.121-.009v-1.684A7.977,7.977,0,0,1,64.471,289.089Z" transform="translate(-60.815 -276.629)" fill="#f4f4f4"/></g></g></svg>