<svg xmlns="http://www.w3.org/2000/svg" width="17" height="24" viewBox="0 0 17 24"><path d="M8.5,0A8.349,8.349,0,0,1,17,8.188C17,12.711,8.142,24,8.142,24S0,12.711,0,8.188A8.349,8.349,0,0,1,8.5,0Z" fill="#212121"/><path d="M4.326,1.41a.5.5,0,0,1,.948,0l.615,1.829a.5.5,0,0,0,.461.341l1.892.051a.5.5,0,0,1,.3.889L7,5.763a.5.5,0,0,0-.167.525l.544,1.928a.5.5,0,0,1-.774.541L5.093,7.665a.5.5,0,0,0-.586,0L3,8.757a.5.5,0,0,1-.774-.541l.544-1.928A.5.5,0,0,0,2.6,5.763L1.058,4.52a.5.5,0,0,1,.3-.889l1.892-.051a.5.5,0,0,0,.461-.341Z" transform="translate(3.7 4.05)" fill="#fff"/></svg>