<svg xmlns="http://www.w3.org/2000/svg" width="20" height="19.541" viewBox="0 0 20 19.541"><g transform="translate(-0.39)"><path d="M5.543,16.952a1.295,1.295,0,1,1-1.294,1.294A1.3,1.3,0,0,1,5.543,16.952Zm11.28,0a1.295,1.295,0,1,1-1.294,1.294A1.3,1.3,0,0,1,16.824,16.952ZM1.268.009l2.08.36a.753.753,0,0,1,.619.677l.235,2.8H18.593a2.092,2.092,0,0,1,1.775,2.37L19.419,12.8A2.562,2.562,0,0,1,16.9,14.985H5.975a2.562,2.562,0,0,1-2.539-2.343L2.52,1.748l-1.507-.26A.752.752,0,0,1,.4.62.759.759,0,0,1,1.268.009ZM4.875,5.348H4.328l.6,7.172a1.042,1.042,0,0,0,1.046.966H16.894a1.055,1.055,0,0,0,1.04-.9l.95-6.559a.587.587,0,0,0-.112-.438.58.58,0,0,0-.388-.231H4.875Zm10.413,2.2a.75.75,0,0,1,0,1.5H12.516a.75.75,0,0,1,0-1.5Z" fill-rule="evenodd"/></g></svg>