<svg xmlns="http://www.w3.org/2000/svg" width="32" height="29" viewBox="0 0 32 29"><g transform="translate(-967 -268.73)"><path d="M2,0H30a2,2,0,0,1,2,2V7a0,0,0,0,1,0,0H0A0,0,0,0,1,0,7V2A2,2,0,0,1,2,0Z" transform="translate(967 268.73)" fill="#e6e6e6"/><path d="M0,0H32a0,0,0,0,1,0,0V20a2,2,0,0,1-2,2H2a2,2,0,0,1-2-2V0A0,0,0,0,1,0,0Z" transform="translate(967 275.73)" fill="#7a838b"/><g transform="translate(967 268.73)" fill="none" stroke="#212121" stroke-width="0.8"><rect width="32" height="29" rx="2" stroke="none"/><rect x="0.4" y="0.4" width="31.2" height="28.2" rx="1.6" fill="none"/></g><line x2="31.735" transform="translate(967.191 276.135)" fill="none" stroke="#212121" stroke-width="0.8"/><g transform="translate(981 270.73)" fill="#bebebe" stroke="#212121" stroke-width="0.8"><rect width="16" height="4" rx="2" stroke="none"/><rect x="0.4" y="0.4" width="15.2" height="3.2" rx="1.6" fill="none"/></g><g transform="translate(969 270.73)" fill="#555" stroke="#212121" stroke-width="0.8"><circle cx="2" cy="2" r="2" stroke="none"/><circle cx="2" cy="2" r="1.6" fill="none"/></g><g transform="translate(975 270.73)" fill="#555" stroke="#212121" stroke-width="0.8"><circle cx="2" cy="2" r="2" stroke="none"/><circle cx="2" cy="2" r="1.6" fill="none"/></g><g transform="translate(968.829 278.216)" fill="#e6e6e6"><path d="M 27.44184684753418 16.87820053100586 L 1.016366958618164 16.87820053100586 C 0.6764969229698181 16.87820053100586 0.3999969065189362 16.60169982910156 0.3999969065189362 16.2618408203125 L 0.3999969065189362 1.016370058059692 C 0.3999969065189362 0.6765000820159912 0.6764969229698181 0.4000000655651093 1.016366958618164 0.4000000655651093 L 27.44184684753418 0.4000000655651093 C 27.78171730041504 0.4000000655651093 28.0582160949707 0.6765000820159912 28.0582160949707 1.016370058059692 L 28.0582160949707 16.2618408203125 C 28.0582160949707 16.60169982910156 27.78171730041504 16.87820053100586 27.44184684753418 16.87820053100586 Z" stroke="none"/><path d="M 1.016366958618164 0.7999992370605469 C 0.8970565795898438 0.7999992370605469 0.7999973297119141 0.8970603942871094 0.7999973297119141 1.016359329223633 L 0.7999973297119141 16.2618408203125 C 0.7999973297119141 16.38113975524902 0.8970565795898438 16.47820091247559 1.016366958618164 16.47820091247559 L 27.44184684753418 16.47820091247559 C 27.5611572265625 16.47820091247559 27.65821647644043 16.38113975524902 27.65821647644043 16.2618408203125 L 27.65821647644043 1.016359329223633 C 27.65821647644043 0.8970603942871094 27.5611572265625 0.7999992370605469 27.44184684753418 0.7999992370605469 L 1.016366958618164 0.7999992370605469 M 1.016366958618164 0 L 27.44184684753418 0 C 28.00316619873047 0 28.45821762084961 0.4550399780273438 28.45821762084961 1.016359329223633 L 28.45821762084961 16.2618408203125 C 28.45821762084961 16.82316017150879 28.00316619873047 17.27820014953613 27.44184684753418 17.27820014953613 L 1.016366958618164 17.27820014953613 C 0.4550361633300781 17.27820014953613 -3.814697265625e-06 16.82316017150879 -3.814697265625e-06 16.2618408203125 L -3.814697265625e-06 1.016359329223633 C -3.814697265625e-06 0.4550399780273438 0.4550361633300781 0 1.016366958618164 0 Z" stroke="none" fill="#212121"/></g></g></svg>