<svg xmlns="http://www.w3.org/2000/svg" width="38.835" height="26.466" viewBox="0 0 38.835 26.466"><g transform="translate(0.5)"><g transform="translate(11.407 0)"><path d="M4859.611-3026.434s-1.13.413-3.088-1.543-1.68-5.176,1.5-7.718,8.489-3.678,8.489-3.678l2.134,2.134s-2.678,5.357-5.629,7.9" transform="translate(-4855.289 3044.184)" fill="#c47b44"/><path d="M4859.611-3026.434s-1.13.413-3.088-1.543-1.68-5.176,1.5-7.718,8.489-3.678,8.489-3.678l2.134,2.134s-2.678,5.357-5.629,7.9" transform="translate(-4855.289 3044.184)" fill="none" stroke="#212121" stroke-width="1"/><path d="M4875.274-3038.668l1.407-1.589" transform="translate(-4862.962 3044.523)" fill="none" stroke="#212121" stroke-width="1"/><g transform="matrix(0.819, 0.574, -0.574, 0.819, 13.649, 0)" fill="#9f5c29" stroke="#212121" stroke-width="1"><ellipse cx="2.464" cy="1.848" rx="2.464" ry="1.848" stroke="none"/><ellipse cx="2.464" cy="1.848" rx="1.964" ry="1.348" fill="none"/></g></g><path d="M4821.773-3022.554s-.136-19.567,17.569-16.571a24.223,24.223,0,0,1,10.6,4.2,15.5,15.5,0,0,1,6.421,12.375Z" transform="translate(-4821.773 3048.521)" fill="#c47b44"/><path d="M4821.773-3022.554s-.136-19.567,17.569-16.571a24.223,24.223,0,0,1,10.6,4.2,15.5,15.5,0,0,1,6.421,12.375Z" transform="translate(-4821.773 3048.521)" fill="none" stroke="#212121" stroke-width="1"/><g transform="translate(20.648 4.312)"><path d="M4859.611-3026.434s-1.13.413-3.088-1.543-1.68-5.176,1.5-7.718,8.489-3.678,8.489-3.678l2.134,2.134s-2.678,5.357-5.629,7.9" transform="translate(-4855.289 3044.184)" fill="#c47b44"/><path d="M4859.611-3026.434s-1.13.413-3.088-1.543-1.68-5.176,1.5-7.718,8.489-3.678,8.489-3.678l2.134,2.134s-2.678,5.357-5.629,7.9" transform="translate(-4855.289 3044.184)" fill="none" stroke="#212121" stroke-width="1"/><path d="M4875.274-3038.668l1.407-1.589" transform="translate(-4862.962 3044.523)" fill="none" stroke="#212121" stroke-width="1"/><g transform="matrix(0.819, 0.574, -0.574, 0.819, 13.649, 0)" fill="#9f5c29" stroke="#212121" stroke-width="1"><ellipse cx="2.464" cy="1.848" rx="2.464" ry="1.848" stroke="none"/><ellipse cx="2.464" cy="1.848" rx="1.964" ry="1.348" fill="none"/></g></g><path d="M4831.582-3027.8a3.649,3.649,0,0,0,0,2.452" transform="translate(-4825.454 3044.053)" fill="none" stroke="#212121" stroke-width="1"/><path d="M4837.187-3033.182a3.056,3.056,0,0,0-1.635,1.634" transform="translate(-4827.063 3046.119)" fill="none" stroke="#212121" stroke-width="1"/><path d="M4835.552-3022.939h2.088" transform="translate(-4827.063 3042.186)" fill="none" stroke="#212121" stroke-width="1"/><path d="M4861.362-3029.2a4.152,4.152,0,0,0-1.271,2.77" transform="translate(-4836.485 3044.591)" fill="none" stroke="#212121" stroke-width="1"/></g></svg>