<svg xmlns="http://www.w3.org/2000/svg" width="24" height="24" viewBox="0 0 24 24"><path d="M0,0H24V24H0Z" fill="none"/><path d="M15.578,8.469h.786a.8.8,0,0,1,.786.809v8.086a.8.8,0,0,1-.786.809H3.786A.8.8,0,0,1,3,17.363V9.277a.8.8,0,0,1,.786-.809h.786V7.66A5.583,5.583,0,0,1,10.075,2a5.583,5.583,0,0,1,5.5,5.66ZM4.572,10.086v6.469H15.578V10.086ZM9.289,11.7h1.572v3.234H9.289Zm4.717-3.234V7.66a3.988,3.988,0,0,0-3.931-4.043A3.988,3.988,0,0,0,6.144,7.66v.809Z" transform="translate(1.924 1.914)" fill="#676767"/></svg>